<svg width="60" height="60" viewBox="0 0 60 60" fill="none" xmlns="http://www.w3.org/2000/svg">
<path d="M5.00002 29.9996H22.5C26.75 29.9996 30 33.2496 30 37.4996C30 41.7496 26.75 44.9996 22.5 44.9996H7.50002C6.00002 44.9996 5.00002 43.9996 5.00002 42.4996V17.4996C5.00002 15.9996 6.00002 14.9996 7.50002 14.9996H20C24.25 14.9996 27.5 18.2496 27.5 22.4996C27.5 26.7496 24.25 29.9996 20 29.9996H5.00002Z" stroke="white" stroke-width="4" stroke-miterlimit="10"/>
<path d="M35 34.9998H55C55 29.4998 50.5 24.9998 45 24.9998C39.5 24.9998 35 29.4998 35 34.9998ZM35 34.9998C35 40.4998 39.5 44.9998 45 44.9998H49.25" stroke="white" stroke-width="4" stroke-miterlimit="10" stroke-linecap="round" stroke-linejoin="round"/>
<path d="M48.75 18.7496H41.25" stroke="white" stroke-width="4" stroke-miterlimit="10" stroke-linecap="round" stroke-linejoin="round"/>
</svg>
