<svg width="121" height="120" viewBox="0 0 121 120" fill="none" xmlns="http://www.w3.org/2000/svg">
<path d="M60.4629 110C88.0629 110 110.463 87.6 110.463 60C110.463 32.4 88.0629 10 60.4629 10C32.8629 10 10.4629 32.4 10.4629 60C10.4629 87.6 32.8629 110 60.4629 110Z" stroke="white" stroke-width="6" stroke-linecap="round" stroke-linejoin="round"/>
<path d="M60.4629 80C71.5129 80 80.4629 71.05 80.4629 60C80.4629 48.95 71.5129 40 60.4629 40C49.4129 40 40.4629 48.95 40.4629 60C40.4629 71.05 49.4129 80 60.4629 80Z" stroke="white" stroke-width="6" stroke-linecap="round" stroke-linejoin="round"/>
<path d="M106.313 40C91.2129 36.7 75.5629 36.7 60.4629 40" stroke="white" stroke-width="6" stroke-linecap="round" stroke-linejoin="round"/>
<path d="M20.2127 30.3L20.3127 30.6C25.3627 45.05 33.1127 58.45 43.1627 70" stroke="white" stroke-width="6" stroke-linecap="round" stroke-linejoin="round"/>
<path d="M54.8629 109.7C65.1629 98.35 72.9129 84.95 77.6129 70.4L77.7629 70" stroke="white" stroke-width="6" stroke-linecap="round" stroke-linejoin="round"/>
</svg>
