<svg width="60" height="60" viewBox="0 0 60 60" fill="none" xmlns="http://www.w3.org/2000/svg">
<path d="M29.9766 4.47078C15.4863 4.46492 3.75 16.1954 3.75 30.6739C3.75 42.1231 11.0918 51.8556 21.3164 55.4298C22.6934 55.7755 22.4824 54.797 22.4824 54.129V49.588C14.5313 50.5196 14.209 45.2579 13.6758 44.379C12.5977 42.5391 10.0488 42.0704 10.8105 41.1915C12.6211 40.2598 14.4668 41.4259 16.6055 44.5841C18.1523 46.8751 21.1699 46.4884 22.6992 46.1075C23.0332 44.7306 23.748 43.5001 24.7324 42.545C16.4941 41.0684 13.0605 36.0411 13.0605 30.0645C13.0605 27.1641 14.0156 24.4981 15.8906 22.3477C14.6953 18.8028 16.002 15.7677 16.1777 15.3165C19.582 15.0118 23.1211 17.754 23.3965 17.9708C25.3301 17.4493 27.5391 17.1739 30.0117 17.1739C32.4961 17.1739 34.7109 17.461 36.6621 17.9884C37.3242 17.4845 40.6055 15.129 43.7695 15.4161C43.9395 15.8673 45.2168 18.8321 44.0918 22.3302C45.9902 24.4864 46.957 27.1759 46.957 30.0821C46.957 36.0704 43.5 41.1036 35.2383 42.5567C35.9459 43.2526 36.5078 44.0826 36.8911 44.9981C37.2744 45.9136 37.4714 46.8963 37.4707 47.8888V54.4806C37.5176 55.0079 37.4707 55.5294 38.3496 55.5294C48.7266 52.0313 56.1973 42.2286 56.1973 30.6798C56.1973 16.1954 44.4551 4.47078 29.9766 4.47078V4.47078Z" fill="white"/>
</svg>
