<svg width="60" height="60" viewBox="0 0 60 60" fill="none" xmlns="http://www.w3.org/2000/svg">
<path d="M53.9999 25.4998H30.4999V34.7498H44.2499C43.9999 36.9998 42.4999 40.4998 39.2499 42.7498C37.2499 44.2498 34.2499 45.2498 30.4999 45.2498C23.9999 45.2498 18.2499 40.9998 16.2499 34.7498C15.7499 33.2498 15.4999 31.4998 15.4999 29.7498C15.4999 27.9998 15.7499 26.2498 16.2499 24.7498C16.4999 24.2498 16.4999 23.7498 16.7499 23.4998C18.9999 18.2498 24.2499 14.4998 30.4999 14.4998C35.2499 14.4998 38.2499 16.4998 40.2499 18.2498L47.2499 11.2498C42.9999 7.49979 37.2499 4.99979 30.4999 4.99979C20.7499 4.99979 12.2499 10.4998 8.24989 18.7498C6.49989 22.2498 5.49989 25.9998 5.49989 29.9998C5.49989 33.9998 6.49989 37.7498 8.24989 41.2498C12.2499 49.4998 20.7499 54.9998 30.4999 54.9998C37.2499 54.9998 42.9999 52.7498 46.9999 48.9998C51.7499 44.7498 54.4999 38.2498 54.4999 30.4998C54.4999 28.4998 54.2499 26.9998 53.9999 25.4998Z" stroke="white" stroke-width="4" stroke-miterlimit="10" stroke-linecap="round" stroke-linejoin="round"/>
</svg>
