<svg width="24" height="24" viewBox="0 0 24 24" fill="none" xmlns="http://www.w3.org/2000/svg">
<path d="M9 22H15C20 22 22 20 22 15V9C22 4 20 2 15 2H9C4 2 2 4 2 9V15C2 20 4 22 9 22Z" stroke="white" stroke-width="1.5" stroke-linecap="round" stroke-linejoin="round"/>
<path d="M17.2908 18.0429V15.7401L17.2908 13.4374C17.2908 12.6231 16.9673 11.8421 16.3915 11.2663C15.8157 10.6905 15.0347 10.367 14.2204 10.367C13.4061 10.367 12.6251 10.6905 12.0493 11.2663C11.4735 11.8421 11.15 12.6231 11.15 13.4374L11.15 18.0429" stroke="white" stroke-width="2.30279"/>
<line x1="7.04967" y1="18.043" x2="7.04967" y2="9.28002" stroke="white" stroke-width="2.13793"/>
<circle cx="7.0343" cy="7.18839" r="1.11386" fill="white"/>
<path d="M11.15 9L11.15 14" stroke="white" stroke-width="2.3"/>
</svg>
